<?xml version="1.0" encoding="utf-8"?>
<!-- Generator: Adobe Illustrator 25.2.1, SVG Export Plug-In . SVG Version: 6.00 Build 0)  -->
<svg version="1.1" id="레이어_1" xmlns="http://www.w3.org/2000/svg" xmlns:xlink="http://www.w3.org/1999/xlink" x="0px"
	 y="0px" viewBox="0 0 119.06 34.02" style="enable-background:new 0 0 119.06 34.02;" xml:space="preserve">
<style type="text/css">
	.st0{fill:#FF3478;}
</style>
<g id="logo" transform="translate(-936.508 -300.006)">
	<path id="패스_1" class="st0" d="M948.72,318.42l-4.34-10.06h-5.03l7.09,15.03l-4.06,8.94h4.84L958,308.36h-5.03L948.72,318.42z"
		/>
	<path id="패스_2" class="st0" d="M967.49,307.86c-4.73-0.05-8.6,3.74-8.65,8.47s3.74,8.6,8.47,8.65c0.06,0,0.12,0,0.19,0
		c1.8-0.03,3.51-0.79,4.75-2.09v1.72h3.94v-7.65c0.19-4.83-3.57-8.89-8.39-9.08C967.69,307.86,967.59,307.86,967.49,307.86z
		 M967.49,320.83c-2.43,0.1-4.49-1.78-4.59-4.22c-0.1-2.43,1.78-4.49,4.22-4.59c2.43-0.1,4.49,1.78,4.59,4.22c0,0.06,0,0.13,0,0.19
		c0.07,2.35-1.77,4.32-4.13,4.4C967.55,320.82,967.52,320.82,967.49,320.83L967.49,320.83z"/>
	<path id="패스_3" class="st0" d="M988.89,307.86c-1.53,0-3.69,0.5-4.75,2.16v-1.97h-4.22v16.56h4.41v-9.44
		c-0.04-1.86,1.44-3.4,3.31-3.44c0.07,0,0.15,0,0.22,0c1.78-0.15,3.35,1.18,3.49,2.96c0.01,0.15,0.01,0.3,0.01,0.44v9.47h4.41v-9.72
		C995.77,311.17,993.92,307.86,988.89,307.86z"/>
	<path id="패스_4" class="st0" d="M1007.42,307.86c-4.73,0-8.56,3.83-8.56,8.56c0,4.73,3.83,8.56,8.56,8.56
		c4.73,0,8.56-3.83,8.56-8.56v0C1015.97,311.7,1012.15,307.87,1007.42,307.86z M1007.42,320.8c-2.42,0.1-4.47-1.79-4.56-4.22
		c-0.1-2.42,1.79-4.47,4.22-4.56c2.42-0.1,4.47,1.79,4.56,4.22c0,0.06,0,0.13,0,0.19c0.06,2.35-1.79,4.31-4.14,4.37
		C1007.48,320.79,1007.45,320.79,1007.42,320.8L1007.42,320.8z"/>
	<rect id="사각형_5" x="1019.42" y="301.7" class="st0" width="4.37" height="22.9"/>
	<path id="패스_5" class="st0" d="M1028.04,324.04c0,3-1.81,3.97-3.47,3.97v4.31c2.5,0,7.75-0.69,7.78-8.22v-15.71h-4.31V324.04z"
		/>
	<path id="패스_6" class="st0" d="M1044.04,307.86c-4.73-0.05-8.6,3.74-8.65,8.47s3.74,8.6,8.47,8.65c0.06,0,0.12,0,0.19,0
		c1.8-0.03,3.51-0.79,4.75-2.09v1.72h3.94v-7.65c0.19-4.83-3.57-8.89-8.39-9.08C1044.23,307.86,1044.13,307.86,1044.04,307.86z
		 M1044.04,320.83c-2.43,0.1-4.49-1.78-4.59-4.22c-0.1-2.43,1.78-4.49,4.22-4.59c2.43-0.1,4.49,1.78,4.59,4.22c0,0.06,0,0.13,0,0.19
		c0.07,2.35-1.77,4.32-4.13,4.4C1044.1,320.82,1044.07,320.82,1044.04,320.83L1044.04,320.83z"/>
</g>
</svg>
