<svg xmlns="http://www.w3.org/2000/svg" width="201" height="220.33" style="enable-background:new 0 0 201 220.33" xml:space="preserve">
  <style>
    .st1{fill:#060707}.st4{stroke:#000;stroke-linecap:round;stroke-linejoin:round;stroke-miterlimit:10}
  </style>
  <path d="M168.93 91.66c18.15-5.15 31.57-23.24 31.57-44.82C200.5 21.25 181.65.5 158.4.5s-42.1 20.75-42.1 46.34c0 10 2.91 19.24 7.8 26.81a133.49 133.49 0 0 0-23.6-2.1c-8.13 0-16.03.74-23.6 2.1 4.9-7.57 7.8-16.81 7.8-26.81C84.7 21.25 65.85.5 42.6.5S.5 21.25.5 46.84c0 21.58 13.42 39.66 31.57 44.82C12.65 105.18.5 124.38.5 145.69c0 40.95 44.77 74.14 100 74.14s100-33.19 100-74.14c0-21.31-12.15-40.51-31.57-54.03z" style="fill:#e09f0a;stroke:#000;stroke-miterlimit:10"/>
  <ellipse class="st1" cx="63.01" cy="122.33" rx="5.35" ry="5.21"/>
  <ellipse class="st1" cx="143.24" cy="122.33" rx="5.35" ry="5.21"/>
  <ellipse cx="101.99" cy="138.55" rx="5.35" ry="5.21" style="fill:#060707;stroke:#000;stroke-miterlimit:10"/>
  <path d="M69.88 150.81c-.03.61-.09 1.17-.09 1.83 0 18.95 14.41 34.31 32.19 34.31s32.19-15.36 32.19-34.31" style="fill:none;stroke:#000;stroke-linecap:round;stroke-linejoin:round;stroke-miterlimit:10"/>
  <path class="st4" d="m76.9 73.19 23.6 47.79 23.6-47.79"/>
</svg>
